<svg width="707" height="530" fill="none" xmlns="http://www.w3.org/2000/svg"><path fill-rule="evenodd" clip-rule="evenodd" d="M309.854 231.511c-6.281 4.553-5.281 13.511-3.39 20.019 2.784 9.584 8.329 18.455 14.654 26.102 11.222 13.566 30.272 28.799 47.833 16.889 15.638-10.607 25.502-32.009 28.907-50.037 1.052-5.571 2.454-13.872-2.491-18.06-7.31-6.191-20.204-5.065-29.028-4.268-5.811.525-11.419 2.306-17.162 1.47-13.343-1.945-28.194-.183-39.323 7.885z" fill="#D53B4F"/><path fill-rule="evenodd" clip-rule="evenodd" d="M580.394 302.502c-12.722 16.139-34.352 18.688-53.562 18.53-11.535-.095-23.093-.964-34.401-3.315a150.24 150.24 0 01-18.044-4.963c-3.891-1.333-9.684-1.999-11.34-6.168-4.368-11.001-1.154-24.797.644-35.962.915-5.68 1.602-11.393 2.492-17.077.569-3.637.842-7.66 2.366-11.062 1.785-3.986 4.039-3.19 7.813-2.089 5.2 1.518 10.538 2.149 15.884 2.965 13.048 1.993 24.431 6.01 36.289 11.705 11.725 5.63 23.099 11.188 33.557 19.017 5.299 3.967 9.865 8.274 14.118 13.33 3.286 3.906 8.191 10.005 4.184 15.089zm-55.612 71.68c-.102 1.738-20.041-3.508-22.664-4.096-17.216-3.862-34.774-8.259-51.026-15.236-15.171-6.512-28.538-13.963-40.475-25.532-5.565-5.393-10.57-11.072-15.359-17.121-2.4-3.031-5.68-2.679-8.357-5.244-2.407-2.308-4.254-4.11-3.502-7.561 6.017 1.585 17.126 11.55 23.363 6.518 3.555-2.868-1.375-5.864-3.651-7.526-4.279-3.125-7.938-6.981-11.34-11.028 5.841 1.132 11.277 3.319 16.359 6.364 2.258 1.352 9.998 6.257 11.8 1.582 1.109-2.879-4.139-6.496-5.775-8.088-4.018-3.91-8.356-8.474-10.489-13.73 5.274-1.224 10.246 2.852 13.838 6.173 3.987 3.686 8.874 7.554 12.217 11.802 1.725 2.191 2.1 4.778 3.447 7.141 1.517 2.659 3.941 4.937 6.259 6.904 4.465 3.791 9.688 6.582 15.049 8.89 12.25 5.274 25.38 9.007 38.438 11.625 6.406 1.285 12.654 1.877 19.156 2.095 5.053.169 7.289 1.68 9.218 6.336 5.221 12.598 4.274 26.457 3.494 39.732zm-149.947-95.993c-2.921 2.734-6.718 4.448-9.771 7.077-2.688 2.312-5.787 4.779-8.786 6.649-3.202 1.996-5.594.597-8.477-1.209-3.384-2.119-7.275-2.978-10.76-4.874-12.052-6.559-26.796-22.631-24.546-37.388.954-6.255 4.188-12.409 10.06-15.247 5.333-2.577 13.085-4.007 18.79-1.853 3.218 1.215 5.521 3.898 7.583 6.535 2.404 3.075 3.325 2.59 5.774-.375 4.382-5.305 11.607-9.959 18.75-9.847 3.55.057 7.077.805 10.274 2.278.434.2.675.805 1.11 1.01.534.251 1.412-.272 1.783-.037.937.593 1.871 2.445 2.411 3.384 2.167 3.77 6.069 11.164 2.137 14.339-.002.001.175 4.295.121 4.784-.277 2.562-1.163 4.676-2.304 7.019-3.426 7.037-8.483 12.455-14.149 17.755zm5.825 59.542c-2.767.86-5.748-7.813-3.093-9.197 2.531-1.321 5.599 8.419 3.093 9.197zm-43.468-10.37c-.958 3.276-1.363 6.994-3.707 9.661-2.146-2.547-2.358-7.246-.277-9.863 1.189-1.494 5.033-3.378 3.984.202zm88.565-57.403c-.015.083 3.33 1.683 1.698 3.433-2.23 2.389-1.924-2.262-1.698-3.433zm13.826-26.702c-.038 3.313-7.051 2.513-7.001-.819.061-4.1 7.042-2.692 7.001.819zm-8.371-27.686c.694-3.033 12.892-7.252 12.56-1.966-.167 2.65-14.032 8.414-12.56 1.966zm-125.05 102.856c-1.367 1.644-3.31 2.292-4.949 3.554-1.719 1.322-2.947 3.038-4.448 4.59-4.122 4.262-9.085 7.765-13.532 11.68-8.177 7.198-16.009 14.935-25.075 21.04-16.2 10.907-34.987 16.873-53.636 22.096-1.545.433-5.996 2.18-7.524.879-1.649-1.404-.811-6.341-.735-8.207.309-7.654 1.202-15.398 1.105-23.041-.04-3.139-.959-7.601.679-10.473 1.828-3.208 6.934-4.147 10.093-5.354 9.599-3.669 18.846-9.858 27.327-15.59 10.424-7.048 20.951-14.211 31.679-20.79 10.51-6.445 22.103-10.76 33.826-14.441.543 1.141-5.051 4.814-5.69 5.329-3.067 2.469-6.404 5.028-8.681 8.288-1.612 2.307-3.265 7.528 1.186 7.662 2.158.065 5.347-2.022 7.303-2.697 3.232-1.115 6.561-1.897 9.941-2.407-2.906 3.2-12.755 8.947-10.963 14.268 1.739 5.163 11.796-.862 15.257-.862-.567 1.8-1.993 3.07-3.163 4.476zM187.35 332.837c-6.44 2.265-13.041 3.553-19.689 5.015-6.335 1.394-12.192 2.444-18.681 1.628-8.961-1.126-18.876-4.837-20.012-15.019-1.347-12.063 7.173-23.148 14.488-31.802 8.903-10.53 18.9-19.944 29.735-28.467a219.512 219.512 0 0134.741-22.361c9.31-4.822 19.825-7.749 29.669-11.368 1.873-.688 7.053-3.107 8.805-1.102 1.415 1.621-.511 4.321-1.157 5.827-1.258 2.934-1.432 5.888-1.756 9.038-1.452 14.07-3.199 28.136-4.003 42.266-.224 3.939-.618 8.058-.388 11.999.127 2.182 1.263 4.962.506 7.093-1.454 4.097-8.113 6.809-11.642 8.638-6.317 3.276-13.007 5.72-19.39 8.854-7.009 3.441-13.834 7.161-21.226 9.761zm89.322-91.422c1.768-.242 4.416-.724 5.992.421 2.055 1.494 1.516 3.572-.382 4.655-1.499.857-5.007 1.091-6.488.314-2.523-1.323-2.096-4.98.878-5.39zm9.791 32.58c-1.429 2.38-6.65 3.94-6.195-.5.39-3.802 8.826-3.881 6.195.5zm-1.938-67.029c2.296.89 6.464 1.651 7.145 4.605.634 2.75-1.972 2.568-3.852 1.811-1.546-.621-8.436-6.463-3.293-6.416zm359.816 104.889c-1.341-5.22-.32-10.999-1.06-16.345-.718-5.182-2.01-9.945-3.864-14.829-4.105-10.812-8.809-20.546-15.463-30.035-12.534-17.87-27.075-33.611-44.633-46.664-17.335-12.886-36.53-23.358-56.864-30.697-21.562-7.783-43.266-10.492-66.004-11.984-6.791-.445-13.575-.973-20.327-1.831-4.934-.627-11.12-1.399-16 .112-3.065.951-4.777 3.624-1.438 5.378 2.367 1.244 5.467 1.392 8.082 1.723-3.159 10.034-8.298 20.103-16.443 27.012-7.951 6.746-18.591 9.059-28.625 10.769-5.442.928-11.535 1.645-17.061 1.245-3.494-.252-6.22-1.87-7.63 1.729-.978 2.5-1.441 5.243-2.73 1.468-1.526-4.463-2.274-4.434-7.019-5.702-9.704-2.592-20.828-4.957-29.293-10.563-8.783-5.817-11.837-15.226-16.74-23.987-1.213-2.166-4.87-6.549-3.002-9.03 1.71-2.269 7.268-2.043 9.813-2.28 2.686-.249 5.388-.26 8.082-.364 1.562-.061 4.702.579 4.074-1.753-.948-3.514-11.1-3.064-13.622-3.121-4.688-.105-9.442.003-14.107.519-23.13 2.558-46.468 7.288-68.852 13.596-43.426 12.236-85.486 34.785-117.178 67.27-30.421 31.182-40.06 83.072-21.358 122.886 9.72 20.692 30.812 29.192 51.259 36.057 10.784 3.62 22.204 6.453 33.669 5.77 5.501-.329 10.722-1.81 16.087-2.926 2.34-.487 5.003-1.263 7.407-1.067 1.819.148 3.567 1.818 5.274.931 1.211-.63 1.738-2.438 3.218-3.209 1.777-.924 3.932-1.257 5.851-1.723 5.336-1.297 10.502-3.398 15.717-5.121 5.393-1.783 10.483-4.078 15.657-6.399 2.613-1.172 8.659-5.937 10.362-2.453.776 1.59.446 4.656.634 6.324.332 2.916.721 5.826 1.146 8.73.937 6.393 2.06 12.76 3.209 19.119 2.076 11.474 4.75 22.457 9.222 33.25 3.571 8.618 6.706 18.385 13.336 25.241 2.894 2.992 6.843 4.339 10.995 3.399 4.722-1.071 7.072-5.36 9.939-8.828 6.307-7.631 16.719-13.479 26.335-15.584 11.774-2.577 23.243 1.193 34.482 4.397 11.888 3.39 23.99 6.62 35.659 10.694 10.873 3.798 22.613 9.406 34.406 8.918 10.283-.425 19.888-8.795 27.304-15.174 7.449-6.407 16.763-15.789 27.473-15.034 5.318.375 10.165 2.94 15.345 3.983 5.687 1.145 11.738 1.308 17.521 1.735 7.179.529 23.239-1.342 25.895-9.979.394-1.281.396-3.919-1.296-4.432-1.556-.471-2.351 1.349-3.825 1.266-3-.169-5.344-5.4-6.992-7.425-6.651-8.174-15.774-14.271-23.236-21.656-8.427-8.338-15.622-18.44-21.971-28.404 2.87-.746 5.968.493 8.746 1.082 3.376.715 6.665 1.579 9.992 2.495 3.666 1.009 7.385 1.703 11.106 2.473 2.777.573 6.462.746 8.968 2.138 2.187 1.217 3.408 2.523 6.124 2.875 2.762.358 5.597.056 8.372.038 7.505-.051 14.994-.191 22.463-.984 26.392-2.804 54.368-13.967 70.238-36.121 4.317-6.027 7.794-12.702 9.992-19.786 1.715-5.531 4.672-13.325 3.179-19.132z" fill="#FFBA02"/><path fill-rule="evenodd" clip-rule="evenodd" d="M396.803 56.594c6.935.098 13.436 2.155 19.899 4.493 5.683 2.056 11.742 3.958 16.337 8.062 8.266 7.381 10.419 19.604 11.772 30.06 1.687 13.049-3.928 23.997-8.653 35.802-4.42 11.041-12.532 19.985-22.174 26.801-5.052 3.57-10.635 5.725-16.476 7.614-5.934 1.92-11.68 4.49-18.028 4.48-9.641-.014-21.983-4.593-26.09-14.091-1.869-4.324-.049-5.1 3.693-2.75 5.427 3.41 10.66 7.09 17.002 8.602 12.3 2.935 27.033-1.611 37.818-7.61 10.782-5.996 18.02-15.004 22.858-26.221 4.881-11.316 6.777-22.467 4.895-34.666-1.595-10.338-4.768-19.782-14.084-25.394-20.112-12.113-47.209-11.137-65.094 4.605-2.453 2.159-4.877 4.259-7.405 6.32-1.607 1.31-3.499 2.88-3.265 5.146.199 1.94 4.335 9.419-.645 7.122-4.038-1.863-6.232-5.505-11.122-5.955-5.205-.48-11.415 3.518-12.972 8.551-1.485 4.802 1.163 11.372 5.312 14.127 2.569 1.706 5.396 1.442 8.313 1.374 1.448-.035 5.478-.505 6.436 1.025 1.696 2.707-4.285 5.553-6.215 6.152-4.697 1.457-10.248-.258-12.948-4.451-2.745-4.262-4.624-9.195-5.002-14.273-.361-4.865.743-9.791 3.613-13.786 3.053-4.248 9.276-9.011 14.855-7.535 2.421.64 4.367 3.142 6.743 3.617 1.5.3.869.514 2.111-.598.789-.705 1.534-2.006 2.263-2.843 4.187-4.807 8.327-9.937 13.451-13.784 9.189-6.9 21.402-10.158 32.802-9.996zm-25.41 95.307c1.087-2.548 3.083 1.997 3.673 2.756 1.169 1.504 3.917 2.673 3.798 4.89-.196 3.661-5.185 2.982-6.848 1.072-1.894-2.174-1.696-6.203-.623-8.718zm35.444-17.331c2.692 4.195-.588 8.722-2.716 12.434-2.035 3.55-3.925 7.562-6.293 10.899-3.932 5.541-12.487-.453-12.741-6.147-.194-4.359 2.894-2.461 4.875-.833 2.04 1.676 3.007 2.094 5.145.263 4.302-3.686 6.234-9.849 9.208-14.516.59-.925 1.658-1.481 2.522-2.1zm7.673 1.349c.694 2.028-.762 7.403 3.286 6.866 2.236-.297 2.714-3.506 3.889-4.907 3.954-4.709 2.742 4.197 1.709 6.426-2.278 4.913-8.652 8.297-11.813 2.065-1.175-2.318-1.171-5.244-.573-7.736.325-1.358 2.221-6.46 3.502-2.714zm-36.093-9.607c-.358 2.367-2.583 7.082.133 8.775 2.39 1.491 6.552-1.746 8.392-3.097 1.912-1.404 6.246-5.433 6.416-.42.087 2.556-2.472 5.622-4.297 7.094-3.894 3.139-11.986 5.955-14.856.046-1.563-3.219-.708-7.802.326-11.046.837-2.629 4.751-7.068 3.886-1.352zm51.076-12.957c1.585 1.84 5.341 5.964 3.299 8.584-2.388 3.064-6.268-2.557-7.797-4.121-1.378-1.409-4.278-5.422-3.041-7.551 2.046-3.522 6.148 1.472 7.539 3.088zm-24.909-7.924c5.18 3.374-1.63 5.804-4.581 6.106-3.571.365-8.137.606-11.417-1.146-4.649-2.484-3.099-6.236 1.407-7.134 4.621-.92 10.571-.446 14.591 2.174zm-67.343-10.743c3.809.74 8.16 1.705 9.457 5.858 1.34 4.293-.585 5.717-4.476 4.751-3.6-.894-8.977-1.794-11.013-5.311-2.431-4.201 2.499-5.985 6.032-5.299zM127.633 186.915c-1.279 4.128-7.749 6.867-10.976 9.376-11.286 8.78-22.314 17.922-32.518 27.943-5.296 5.201-9.304 11.492-13.897 17.277-1.12 1.411-3.105 4.574-5.303 4.277-2.411-.325-2.899-4.478-2.822-6.292.264-6.184 5.912-12.157 9.94-16.416a221.197 221.197 0 0114.323-13.815c5.447-4.8 11.358-8.926 17.382-12.966 5.915-3.966 11.587-8.549 17.738-12.142 2.898-1.692 7.71-2.336 6.133 2.758zm394.516-39.208c4.711.149 9.308 1.694 13.75 3.128 9.773 3.156 19.081 7.534 28.26 12.11 16.091 8.021 31.577 17.725 45.771 28.759 2.967 2.306 6.009 4.174 9.236 6.06 2.065 1.208 5.009 2.682 5.805 5.144 2.021 6.258-8.18-.023-9.627-.922l-2.036-1.263c-30.202-18.718-60.368-36.904-94.53-47.638-1.82-.572-2.386-2.195-1.431-3.805 1.035-1.743 3.051-1.628 4.802-1.573zm-395.891 13.097c-.218 1.906-2.376 2.339-3.832 2.951-5.431 2.281-10.998 4.227-16.414 6.546-10.053 4.304-19.285 10.551-29.779 13.817-2.398.748-2.751-1.672-2.11-3.319.716-1.838 2.863-3.129 4.416-4.192 4.481-3.069 9.563-5.276 14.538-7.408 4.933-2.115 10.012-3.715 15.07-5.489 4.701-1.648 10.156-4.716 15.204-4.942l.221-.011c1.606-.081 2.941-.19 2.686 2.047zm404.465-28.946c-4.803-1.351-.265-4.392 2.589-4.178 3.184.239 6.262 1.742 9.282 2.649 9.233 2.772 17.79 5.804 26.416 10.106 1.286.643 6.953 3.688 3.204 5.037-2.598.934-8.665-3.075-10.895-4.036-9.802-4.227-20.334-6.692-30.596-9.578z" fill="#000"/><path fill-rule="evenodd" clip-rule="evenodd" d="M339.261 141.7c.6-1.762 8.026-21.017 5.119-21.597-3.078-.616-7.193 10.556-8.086 12.574-3.298 7.455-5.251 15.453-6.782 23.449-1.065 5.568-2.002 11.272-1.629 16.964.287 4.374 2.094 5.037 5.071 7.717 0-13.287 2.02-26.531 6.307-39.107z" fill="#000"/></svg>