<svg width="85" height="80" fill="none" xmlns="http://www.w3.org/2000/svg"><path fill-rule="evenodd" clip-rule="evenodd" d="M42.433 16.5a5.465 5.465 0 00-.344-.338c-1.231-1.117-3.212-2.035-4.14-2.432-2.826-1.211-5.883-2.01-8.864-2.71A38.812 38.812 0 0020.21 10c-3.077 0-6.155.357-9.167 1.06-3.405.794-6.788 2.184-9.846 3.908-.984.554-1.288 1.462-1.156 2.325-.029.17-.046.347-.04.543.46 13.059.483 26.124.483 39.19 0 .285.05.536.12.77.035.513.277 1.028.828 1.466 5.683 4.519 13.266 7.085 20.7 7.085 2.157 0 4.3-.225 6.381-.672 4.874.069 14.053-.517 14.62-3.103a55.278 55.278 0 001.016-6.138l24.242-1.558a27.346 27.346 0 002.327-1.598c.449-.348.644-.756.672-1.163.057-.187.097-.386.097-.612 0-8.158.014-16.322.2-24.481.016-.714.082-1.477.149-2.254.131-1.511.267-3.076.05-4.443-.225-1.418-3.113-2.746-4.204-3.203-2.292-.962-4.772-1.595-7.188-2.152-4.803-1.104-9.823-1.066-14.63.031-.712.162-1.423.359-2.129.58l-1.302.92z" fill="#FFBA02"/><path d="M72.681 8.55c-2.291-.962-4.77-1.595-7.187-2.152-4.803-1.104-9.823-1.066-14.63.031-.712.162-1.423.359-2.129.58.54.632.875 1.277.978 1.936.093.602.128 1.222.144 1.849 6.755-2.137 14.037-1.577 20.624 1.2-6.078 3.614-14.09 3.442-20.658.695-.04.745-.096 1.492-.158 2.23a68.814 68.814 0 00-.139 1.909c7.587 2.782 16.467 2.369 23.348-1.791-.03 1.071-.05 2.143-.075 3.215-7.186 3.988-15.878 4.474-23.345 1.2a755.281 755.281 0 00-.074 4.2c7.511 2.804 16.017 2.429 23.324-.957-.02 1.243-.025 2.488-.04 3.73-7.472 3.56-15.628 2.78-23.329.467-.008.728-.014 1.46-.02 2.19.24-.044.48-.09.724-.124a20.081 20.081 0 012.832-.202c4.3 0 8.357 1.407 11.735 3.819 2.708-.264 5.39-.865 8.012-1.888-.008.954-.006 1.909-.011 2.863a23.402 23.402 0 01-4.38 2.286 22.038 22.038 0 012.391 3.254 26.014 26.014 0 001.971-.96c-.004 1.359-.015 2.719-.015 4.08 0 .104-.098.231-.252.369a22.328 22.328 0 011.069 3.725 27.346 27.346 0 002.327-1.598c.448-.348.643-.756.672-1.163.056-.187.097-.385.097-.611 0-8.16.013-16.323.2-24.482.047-2.104.527-4.627.199-6.697-.225-1.418-3.113-2.746-4.205-3.203zM32.497 52.222l-.135.03a32.757 32.757 0 01-5.91.542c-2.096 0-4.191-.207-6.234-.643a24.187 24.187 0 01-5.056-1.672c-.683-.315-4.85-2.143-4.85-2.935 0-1.697-.017-3.394-.02-5.091 5.326 2.604 11.058 4.018 16.746 4.018 1.925 0 3.844-.17 5.743-.503.361-1.92.972-3.757 1.799-5.471a28.258 28.258 0 01-7.672 1.063c-5.476 0-10.997-1.531-16.1-4.354a2.63 2.63 0 00-.538-.224c-.01-1.612-.006-3.224-.02-4.836 6.107 2.103 12.429 3.467 18.693 3.467 3.413 0 6.807-.412 10.144-1.322a20.477 20.477 0 013.185-2.478 19.855 19.855 0 015.441-2.375c.01-1.016.017-2.031.03-3.046.013-1.129.033-2.257.05-3.386.023-1.439.045-2.876.075-4.315.008-.355.011-.711.02-1.067.01-.46.039-.939.073-1.424.097-1.374.25-2.823.296-4.23.007-.208.013-.414.015-.62a13.675 13.675 0 00-.138-2.159c-.085-.554-.49-1.097-1.044-1.6-1.232-1.118-3.213-2.035-4.141-2.433-2.826-1.211-5.883-2.009-8.864-2.71a38.813 38.813 0 00-8.875-1.02c-3.077 0-6.155.358-9.167 1.06-3.405.794-6.788 2.184-9.846 3.908-.984.554-1.288 1.462-1.156 2.325a2.62 2.62 0 00-.04.543c.46 13.059.483 26.124.483 39.19 0 .285.05.536.12.77.035.513.277 1.028.828 1.466 5.683 4.519 13.266 7.085 20.7 7.085 2.157 0 4.3-.225 6.381-.672a22.448 22.448 0 01-1.016-4.881zM25.28 6.337c5.078 0 10.166 1.095 14.957 3.158-3.907 2.372-8.464 3.452-13.077 3.452-5.28 0-10.635-1.414-15.181-3.92 4.28-1.824 8.787-2.69 13.301-2.69zM9.95 13.555c5.085 2.8 10.94 4.267 16.758 4.267 5.327 0 10.616-1.247 15.264-3.809.407-.224.818-.442 1.215-.687-.04 1.35-.061 2.699-.093 4.048-.333.19-.676.356-1.014.532-4.682 2.442-9.83 3.702-14.976 3.702-5.833 0-11.656-1.597-16.78-4.86-.103-.066-.206-.108-.308-.155-.023-1.013-.038-2.026-.066-3.038zm.195 8.768c5.264 2.82 11.106 4.208 16.954 4.208a37.181 37.181 0 0015.085-3.214c.265-.117.532-.225.794-.35-.025 1.567-.03 3.133-.049 4.699-.225.11-.453.201-.68.304-4.278 1.95-8.73 2.764-13.214 2.764-6.344 0-12.754-1.6-18.84-3.813-.02-1.53-.024-3.064-.05-4.598z" fill="#000"/><path d="M71.654 47.307a22.355 22.355 0 00-1.16-3.629 22.257 22.257 0 00-1.996-3.762 21.509 21.509 0 00-2.698-3.28c-1.643-1.645-3.521-2.98-5.553-3.928-2.213-1.033-4.596-1.62-7.044-1.62a17.073 17.073 0 00-3.483.363c-.145.03-.286.067-.428.1a18.2 18.2 0 00-1.602.45c-.515.17-1.02.358-1.514.57a18.934 18.934 0 00-3.31 1.844c-.195.135-.387.272-.576.414-.077.057-.15.117-.226.175-.273.21-.54.43-.8.654-.141.122-.283.242-.422.368a20.213 20.213 0 00-2.886 3.276 20.269 20.269 0 00-3.365 7.943l-.005.018a19.636 19.636 0 00-.3 4.54c.03.568.082 1.138.163 1.709a20.446 20.446 0 00.986 3.943c.09.253.186.502.285.75 2.922 7.294 9.848 12.367 17.66 12.367.861 0 1.732-.061 2.59-.185 4.32-.617 10.205-4.188 12.848-7.796 2.966-4.049 4.037-9.209 3.012-14.526-.047-.258-.117-.505-.176-.758zm-32.246-2.398a16.4 16.4 0 01.47-1.065 16.232 16.232 0 012.42-3.621c1.48-1.675 3.296-3.044 5.368-3.948.261-.113.533-.205.801-.304.264-.098.528-.197.8-.28.204-.062.416-.11.625-.163.213-.055.422-.122.64-.168a13.15 13.15 0 012.67-.28c2.778 0 5.265.901 7.385 2.344 1.423.97 2.677 2.185 3.735 3.553a19.093 19.093 0 012.491 4.265 18.097 18.097 0 011.098 3.575c.01.053.014.104.022.157.761 4.159-.06 8.15-2.335 11.255-2.032 2.774-6.89 5.731-10.192 6.204-.672.095-1.352.144-2.025.144-6.118 0-11.56-3.983-13.911-9.73a17.063 17.063 0 01-.53-1.512c-.231-.775-.42-1.57-.538-2.391a15.221 15.221 0 01-.134-2.61c.008-.302.027-.603.053-.903.027-.309.05-.618.094-.923.131-.886.346-1.751.62-2.593.113-.341.24-.673.373-1.006z" fill="#000"/><path d="M45.897 46.603a6.011 6.011 0 001.657 2.481 5.219 5.219 0 001.44.9c.049.02.097.048.147.066.891.323 1.819.525 2.704.688.059 1.788.104 3.646.134 5.651-.975-.538-1.925-1.261-2.578-1.971-.362-.396-.816-.605-1.314-.605-.742 0-1.475.489-1.782 1.188-.284.648-.16 1.33.34 1.877 1.35 1.47 3.34 2.77 5.367 3.512l.004.6c-.003.517.177.974.52 1.319.362.363.88.573 1.421.573.838 0 1.742-.535 1.749-1.713v-.114c1.554-.05 2.875-.565 3.927-1.538 1.825-1.685 2.959-4.09 2.884-6.122a4.617 4.617 0 00-1.323-3.111 5.527 5.527 0 00-.49-.452c-1.577-1.258-3.464-1.815-5.295-2.207-.02-.522-.045-1.044-.065-1.567-.034-.838-.068-1.675-.105-2.513a11.15 11.15 0 011.776.632c1.036.478 2.095-.12 2.343-1.246a2.022 2.022 0 00-.311-1.595 1.878 1.878 0 00-.759-.625 13.252 13.252 0 00-3.215-.987v-.016c-.053-1.213-1.078-1.866-2.014-1.866-.5 0-.945.177-1.253.498-.298.312-.445.736-.423 1.223l.002.026a10.22 10.22 0 00-1.113.198 8.587 8.587 0 00-1.022.304c-.28.104-.545.225-.8.356-.282.145-.55.303-.8.48-.35.247-.67.526-.953.836a4.274 4.274 0 00-.435.58c-.668 1.046-.867 2.36-.533 3.713.044.189.105.368.168.547zm12.976 7.105c-.002 1.157-1.105 2.644-1.865 3.16a2.955 2.955 0 01-1.332.476 295.787 295.787 0 00-.125-5.891c1.144.303 2.018.682 2.783 1.204.364.248.54.591.538 1.051zm-7.178-6.802c-.249-.053-.497-.11-.74-.172-.861-.215-1.547-.91-1.628-1.651a1.151 1.151 0 01.214-.815 1.85 1.85 0 01.694-.566c.38-.19.817-.328 1.31-.413.026.611.05 1.223.077 1.835l.073 1.782z" fill="#000"/></svg>