<svg width="88" height="80" fill="none" xmlns="http://www.w3.org/2000/svg"><path d="M54.983 18.554a17.922 17.922 0 00-2.231-.141c-6.475 0-11.481 3.462-14.821 6.831-3.21-6.549-8.23-10.755-14.276-11.916-.94-.18-1.911-.272-2.889-.272-7.27 0-15.144 5.212-18.723 12.393-3.61 7.246-2.433 15.152 3.5 23.498 5.974 8.404 13.43 15.715 20.64 22.786l1.485 1.459c.565 1.071 1.64 1.75 2.8 1.752.481 0 .957-.116 1.413-.344l2.606-1.294c9.046-4.491 18.4-9.134 26.684-15.275 8.226-6.097 11.795-13.25 10.606-21.258-1.197-8.067-7.805-17.087-16.794-18.219z" fill="#FFBA02"/><path d="M62.983 10.554a17.922 17.922 0 00-2.231-.141c-6.475 0-11.481 3.462-14.821 6.831-3.21-6.549-8.23-10.755-14.276-11.916-.94-.18-1.911-.272-2.889-.272-7.27 0-15.144 5.212-18.723 12.393-3.61 7.246-2.433 15.152 3.5 23.498 5.974 8.404 13.43 15.715 20.64 22.786l1.485 1.459c.565 1.071 1.64 1.75 2.8 1.752.481 0 .957-.116 1.413-.344l2.606-1.294c9.046-4.491 18.4-9.134 26.684-15.275 8.226-6.097 11.795-13.25 10.606-21.258-1.197-8.067-7.805-17.087-16.794-18.219zM73.91 33.26c-.293 6.85-7.982 11.765-13.068 15.018-6.933 4.432-14.384 8.172-21.62 11.776-5.869-5.769-11.915-11.736-17.214-18.194-3.83-4.668-9.618-11.72-7.775-18.325 1.665-5.966 7.818-12.353 14.323-12.353.418 0 .838.028 1.249.081 7.524.982 10.802 8.461 11.922 11.9-.048.691.173 1.369.639 1.936a3.352 3.352 0 002.568 1.202c1.027 0 1.958-.497 2.555-1.364 1.733-2.515 6.493-8.367 13.265-8.367.714 0 1.438.067 2.15.201 6.65 1.244 11.294 9.732 11.006 16.489z" fill="#000"/></svg>