<svg width="80" height="80" fill="none" xmlns="http://www.w3.org/2000/svg"><path d="M53.61 24.659c-.151-4.606-.236-9.226-.19-13.835a2.023 2.023 0 00-.078-.557c.09-1.004-.5-2.065-1.787-2.031C35.319 8.66 19.088 8.026 2.852 8 1.5 7.998.909 9.185 1.076 10.226a1.975 1.975 0 00-.09.598c.246 19.373.912 47.21.933 66.587 0 .434.123.788.32 1.067.12.821.71 1.548 1.777 1.521 7.018-.174 14.038-.287 21.05-.63 6.25-.307 14.04.103 20.012-1.937 2.115-.722 4.008-1.79 5.63-3.336 2.965-2.826 3.977-6.62 4.232-10.618.246-3.84-.207-7.868-.297-11.406-.231-9.14-.732-18.275-1.033-27.413z" fill="#FFBA02"/><path d="M61.61 16.659c-.151-4.606-.236-9.227-.19-13.835a2.022 2.022 0 00-.078-.557c.09-1.004-.5-2.065-1.787-2.031C43.319.66 27.088.026 10.852 0 9.5-.002 8.909 1.185 9.076 2.226a1.976 1.976 0 00-.09.598c.246 19.373.912 47.21.933 66.587 0 .434.123.788.32 1.067.12.821.71 1.548 1.777 1.521 7.018-.174 14.038-.287 21.05-.63 6.25-.307 14.04.103 20.012-1.937 2.115-.722 4.008-1.79 5.63-3.336 2.965-2.826 3.977-6.62 4.232-10.618.246-3.84-.207-7.868-.297-11.406-.231-9.14-.732-18.275-1.033-27.413zm-10.273 36.16c-1.142.006-2.247.899-1.736 2.268 1.027 2.757 1.496 6.18-.082 8.817-1.91 3.188-5.317 3.101-8.556 3.51-1.982.25-4.088.117-6.085.175-1.554.043-21.236.523-21.236.6-.046-18.651-.663-45.764-.912-64.412 14.99.065 29.976.58 44.965.26-.05 13.707 1.29 35.843 1.38 49.546a19.475 19.475 0 00-7.21-.877 1.897 1.897 0 00-.528.113zm1.464 12.746c1.506-2.564 1.882-5.713 1.099-9.124 1.813.07 3.6.42 5.293 1.138.008.022.012.045.02.065-.549 4.043-3.107 6.523-6.412 7.921z" fill="#000"/><path d="M49.49 34.284H22.031c-2.861 0-2.861 4.482 0 4.482h27.46c2.863 0 2.863-4.482-.001-4.482zM49.49 44.144H22.031c-2.861 0-2.861 4.481 0 4.481h27.46c2.863 0 2.863-4.481-.001-4.481zM49.49 25.32H20.922c-2.862 0-2.862 4.482 0 4.482h28.569c2.862 0 2.862-4.481-.001-4.481zM20.7 19.495c5.102-.207 23.462-.224 28.568-.225 2.862 0 2.863-4.482 0-4.48-5.106 0-23.466.016-28.568.223-2.852.116-2.863 4.598 0 4.482z" fill="#000"/></svg>