<svg width="192" height="154" viewBox="0 0 192 154" fill="none" xmlns="http://www.w3.org/2000/svg">
<path fill-rule="evenodd" clip-rule="evenodd" d="M40 0H0V40H40V0ZM18.7 29H13.45V11.1H21.75C26.45 11.1 29.375 13.6 29.375 17.45C29.375 21.3 26.425 23.8 21.7 23.8H18.7V29ZM18.7 14.9V20H21.15C22.925 20 24.1 19 24.1 17.45C24.1 15.9 22.925 14.9 21.15 14.9H18.7Z" fill="#122675"/>
<rect x="39" y="1" width="38" height="38" stroke="#122675" stroke-width="2"/>
<path d="M51.425 29.0001H56.7V23.1001H57.975L62.425 29.0001H68.3001L63.025 22.7001L63.225 22.6501C65.825 22.1751 67.725 20.1251 67.725 17.2001C67.725 13.5501 64.8251 11.1001 60.45 11.1001H51.425V29.0001ZM56.7 19.6751V14.9001H59.525C61.2 14.9001 62.45 15.8001 62.45 17.2751C62.45 18.7751 61.2 19.6751 59.525 19.6751H56.7Z" fill="#122675"/>
<rect x="77" y="1" width="38" height="38" stroke="#122675" stroke-width="2"/>
<path d="M89.425 29.0001H103.45V24.8501H94.525V21.6751H102.725V18.2501H94.525V15.2501H103.2V11.1001H89.425V29.0001Z" fill="#122675"/>
<rect x="39" y="39" width="38" height="38" stroke="#122675" stroke-width="2"/>
<path d="M57.95 67.375C62.95 67.375 66.225 65.075 66.225 61.525C66.225 57.2 62.1 56.55 59.05 56.1C56.975 55.8 55.2 55.575 55.2 54.225C55.2 53.225 56.2 52.525 57.875 52.525C59.675 52.525 60.85 53.425 60.85 55H65.625C65.625 51.3 62.45 48.75 57.7 48.75C52.975 48.75 49.925 51.05 49.925 54.6C49.925 59.2 54.575 59.575 57.65 60C59.475 60.25 60.95 60.55 60.95 61.85C60.95 62.95 59.85 63.575 58.15 63.575C56 63.575 54.775 62.6 54.75 61.1H49.8C49.8 64.8 53.05 67.375 57.95 67.375Z" fill="#122675"/>
<rect x="77" y="39" width="38" height="38" stroke="#122675" stroke-width="2"/>
<path d="M89.425 67.0001H103.45V62.8501H94.525V59.6751H102.725V56.2501H94.525V53.2501H103.2V49.1001H89.425V67.0001Z" fill="#122675"/>
<rect x="115" y="39" width="38" height="38" stroke="#122675" stroke-width="2"/>
<path d="M126.425 67.0001H131.7V61.1001H132.975L137.425 67.0001H143.3L138.025 60.7001L138.225 60.6501C140.825 60.1751 142.725 58.1251 142.725 55.2001C142.725 51.5501 139.825 49.1001 135.45 49.1001H126.425V67.0001ZM131.7 57.6751V52.9001H134.525C136.2 52.9001 137.45 53.8001 137.45 55.2751C137.45 56.7751 136.2 57.6751 134.525 57.6751H131.7Z" fill="#122675"/>
<rect x="115" y="77" width="38" height="38" stroke="#122675" stroke-width="2"/>
<path d="M130.525 105H138.75L144.05 87.1001H138.6L134.775 101.125H134.525L130.65 87.1001H125.25L130.525 105Z" fill="#122675"/>
<rect x="153" y="77" width="38" height="38" stroke="#122675" stroke-width="2"/>
<path d="M165.425 105H179.45V100.85H170.525V97.6751H178.725V94.2501H170.525V91.2501H179.2V87.1001H165.425V105Z" fill="#122675"/>
<rect x="77" y="115" width="38" height="38" stroke="#122675" stroke-width="2"/>
<path d="M103.89 142V133.999L105.367 135.475L106.78 134.062L97.303 124.585C96.5226 123.805 95.2574 123.805 94.477 124.585L85 134.062L86.4132 135.475L87.89 133.999V142C87.89 143.105 88.7854 144 89.89 144H101.89C102.995 144 103.89 143.105 103.89 142Z" fill="#122675"/>
</svg>
