<svg width="337" height="72" fill="none" xmlns="http://www.w3.org/2000/svg"><g clip-path="url(#clip0)"><path d="M59.597 39.818a3.808 3.808 0 01-2.682-1.117 3.808 3.808 0 01-1.118-2.682c0-1.006.41-1.974 1.118-2.682a3.808 3.808 0 012.682-1.118c1.005 0 1.974.41 2.681 1.118a3.808 3.808 0 011.118 2.682c0 1.005-.41 1.974-1.117 2.681a3.808 3.808 0 01-2.682 1.118zm0-5.103c-.336 0-.67.149-.894.372a1.3 1.3 0 00-.373.894c0 .336.15.67.373.894a1.3 1.3 0 00.894.373 1.3 1.3 0 00.894-.373 1.3 1.3 0 00.372-.894 1.3 1.3 0 00-.372-.894 1.301 1.301 0 00-.894-.372zM67.68 31.735a3.781 3.781 0 01-2.683-1.117 3.822 3.822 0 010-5.401 3.808 3.808 0 012.682-1.118c1.006 0 1.974.41 2.682 1.118a3.808 3.808 0 011.117 2.682c0 1.005-.41 1.974-1.117 2.681a3.671 3.671 0 01-2.682 1.155zm0-5.066a1.3 1.3 0 00-.895.373 1.282 1.282 0 000 1.788 1.282 1.282 0 001.788 0 1.3 1.3 0 00.373-.894 1.3 1.3 0 00-.373-.894c-.223-.26-.559-.373-.894-.373zM51.514 47.9a3.808 3.808 0 01-2.682-1.117 3.808 3.808 0 01-1.118-2.682c0-1.005.41-1.974 1.118-2.681a3.808 3.808 0 012.682-1.118c1.005 0 1.974.41 2.681 1.118a3.808 3.808 0 011.118 2.681c0 1.006-.41 1.974-1.117 2.682a3.808 3.808 0 01-2.682 1.118zm0-5.102a1.3 1.3 0 00-.894.372 1.3 1.3 0 00-.373.894c0 .335.15.67.373.894a1.3 1.3 0 00.894.373 1.3 1.3 0 00.894-.373 1.3 1.3 0 00.372-.894 1.3 1.3 0 00-.372-.894 1.3 1.3 0 00-.894-.372zM67.68 47.9a3.808 3.808 0 01-2.683-1.117 3.822 3.822 0 010-5.4 3.808 3.808 0 012.682-1.118c1.006 0 1.974.41 2.682 1.117a3.808 3.808 0 011.117 2.682c0 1.006-.41 1.974-1.117 2.682a3.694 3.694 0 01-2.682 1.155zm-.895-2.905a1.3 1.3 0 00.894.373 1.3 1.3 0 00.894-.373 1.3 1.3 0 00.373-.894 1.3 1.3 0 00-.373-.894 1.3 1.3 0 00-.894-.372 1.3 1.3 0 00-.894.372c-.484.485-.484 1.267 0 1.788zM51.514 31.735a3.78 3.78 0 01-2.682-1.117 3.808 3.808 0 01-1.118-2.682c0-1.006.41-1.974 1.118-2.682a3.808 3.808 0 012.682-1.117c1.005 0 1.974.41 2.681 1.117a3.808 3.808 0 011.118 2.682c0 1.006-.41 1.974-1.117 2.682a3.78 3.78 0 01-2.682 1.117zm-.894-2.905a1.282 1.282 0 001.788 0 1.3 1.3 0 00.372-.894 1.3 1.3 0 00-.372-.894 1.3 1.3 0 00-.894-.373 1.3 1.3 0 00-.894.373 1.3 1.3 0 00-.373.894c0 .335.112.633.373.894z" fill="#EB5766"/><path d="M59.596 25.85c-.67 0-1.303-.26-1.788-.745a2.508 2.508 0 01-.745-1.788 2.535 2.535 0 012.533-2.533 2.536 2.536 0 012.533 2.533 2.536 2.536 0 01-2.533 2.533zM59.596 51.104a2.535 2.535 0 01-2.532-2.533 2.535 2.535 0 012.532-2.533 2.536 2.536 0 012.533 2.533 2.512 2.512 0 01-2.533 2.533zM72.15 38.551a2.535 2.535 0 01-2.534-2.532 2.535 2.535 0 012.533-2.533 2.535 2.535 0 012.533 2.533c.037 1.378-1.118 2.532-2.533 2.532zM47.044 38.551a2.536 2.536 0 01-2.533-2.532 2.535 2.535 0 012.533-2.533 2.535 2.535 0 012.533 2.533c0 1.378-1.155 2.532-2.533 2.532z" fill="#1B1D1C"/><path d="M78.63 34.715h1.229a20.727 20.727 0 00-1.08-5.438l-1.155.484-.968-2.347 1.154-.484a20.318 20.318 0 00-2.98-4.395l-.856.857-1.788-1.788.857-.857c-1.416-1.23-2.943-2.272-4.582-3.054l-.484 1.154-2.347-.968.485-1.155A20.516 20.516 0 0060.9 15.72v1.229h-2.533v-1.23a20.72 20.72 0 00-5.438 1.08l.484 1.155-2.347.969-.484-1.155a20.32 20.32 0 00-4.395 2.98l.857.857-1.788 1.788-.857-.857c-1.23 1.415-2.272 2.942-3.054 4.581l1.154.485-.968 2.346-1.155-.484a20.521 20.521 0 00-1.005 5.215H40.6v2.533h-1.23a20.719 20.719 0 001.08 5.438l1.155-.485.969 2.347-1.155.484a20.317 20.317 0 002.98 4.396l.857-.857 1.788 1.788-.857.856c1.415 1.23 2.943 2.273 4.581 3.055l.485-1.155 2.346.969-.484 1.154c1.676.559 3.427.894 5.215 1.006v-1.23h2.533v1.23a20.72 20.72 0 005.438-1.08l-.484-1.155 2.346-.968.484 1.154a20.32 20.32 0 004.396-2.98l-.857-.856 1.788-1.788.856.857c1.23-1.416 2.273-2.943 3.055-4.582l-1.155-.484.969-2.347 1.154.484a20.526 20.526 0 001.006-5.214h-1.23v-2.533zM72.149 48.57c-3.353 3.352-7.822 5.215-12.553 5.215-4.73 0-9.2-1.863-12.552-5.215-3.353-3.352-5.215-7.822-5.215-12.552 0-4.73 1.862-9.2 5.215-12.553 3.352-3.352 7.822-5.215 12.552-5.215 4.73 0 9.2 1.863 12.553 5.215 3.352 3.352 5.214 7.822 5.214 12.553 0 4.73-1.825 9.2-5.214 12.552z" fill="#1B1D1C"/><path d="M76.656 27.452l1.006 2.346 1.117-.484 1.192-.521.522 1.192 2.346-1.006-1.974-4.656-2.346.968.484 1.192-1.192.484-1.155.485zM40.675 46.709l-.484-1.155 1.191-.521 1.155-.485-1.006-2.346-1.117.484-1.192.522-.521-1.192-2.347 1.005 1.974 4.656 2.347-.968zM69.132 55.425l-.522-1.23-.447-1.117-2.346.969.484 1.154.484 1.192-1.155.484.969 2.347 4.693-1.974-1.006-2.347-1.154.522zM50.06 16.613l.522 1.192.447 1.117 2.347-.969-.484-1.154-.485-1.192 1.155-.484-.968-2.347L47.9 14.75l1.006 2.347 1.155-.485zM80.045 42.984l-1.192-.484-1.154-.484-.931 2.346 1.117.484 1.23.485-.485 1.191 2.347.932 1.9-4.694-2.347-.968-.485 1.192zM38.216 24.546l-1.9 4.694 2.347.968.484-1.192 1.192.484 1.155.485.931-2.347-1.117-.484-1.23-.485.485-1.192-2.347-.93zM53.115 55.276l.447-1.155-2.346-.968-.447 1.154-.522 1.192-1.154-.484-.969 2.384 4.693 1.9.969-2.347-1.155-.484.484-1.192zM65.63 17.879l2.347.968.447-1.154.522-1.192 1.154.484.969-2.347-4.693-1.937-.969 2.347 1.155.484-.484 1.192-.447 1.155zM74.83 22.572l3.614-3.613 1.788 1.788 1.825-1.788-5.401-5.4-1.788 1.787 1.788 1.788-3.613 3.65-.894.857 1.825 1.788.857-.857zM44.362 49.428l-3.613 3.65-1.788-1.825-1.825 1.825 5.4 5.364 1.789-1.788-1.788-1.788 3.613-3.613.894-.894-1.825-1.788-.857.857zM78.444 53.078l-3.613-3.65-.857-.857-1.825 1.788.894.894 3.613 3.613-1.788 1.788 1.788 1.788 5.4-5.364-1.824-1.825-1.788 1.825zM42.537 17.134l1.788-1.788-1.788-1.788-5.401 5.401 1.825 1.788 1.788-1.788 3.613 3.613.856.857 1.826-1.788-.894-.857-3.613-3.65zM85 32.182v2.533H78.63v2.57H85v2.533h2.532v-7.636H85zM40.563 37.285v-2.57H34.193v-2.533h-2.532v7.636h2.532v-2.533H40.563zM60.863 56.281v-1.229H58.33V61.384h-2.533v2.57h7.599v-2.57h-2.533v-5.103zM55.797 10.616h2.533v6.332h2.533V10.616h2.533V8.083h-7.599v2.533z" fill="#1B1D1C"/><path d="M0 39.147v-6.145h8.418c1.639 0 2.98-.15 4.023-.41 1.043-.298 1.862-.745 2.42-1.341.56-.596.932-1.416 1.118-2.384.187-.968.224-2.16.112-3.539l-.782-12.627c-.112-2.01.149-3.762.782-5.363a9.852 9.852 0 012.756-4.023c1.23-1.08 2.757-1.9 4.545-2.458C25.217.298 27.228 0 29.5 0h3.464v6.146H29.5c-2.458 0-4.32.559-5.55 1.639-1.266 1.08-1.825 2.756-1.713 4.954l.782 12.627a11.592 11.592 0 01-.372 3.948c-.373 1.266-.894 2.347-1.64 3.315a8.346 8.346 0 01-2.793 2.272c-1.117.559-2.458.857-3.985.931v.373c1.527.037 2.868.372 4.022.968 1.155.596 2.086 1.378 2.794 2.347a9.844 9.844 0 011.602 3.39c.372 1.266.484 2.607.372 3.985l-.782 12.478c-.112 2.198.484 3.837 1.713 4.954 1.267 1.117 3.092 1.639 5.55 1.639h3.464v6.146H29.5c-2.235 0-4.283-.298-6.108-.857-1.825-.559-3.315-1.378-4.545-2.496a9.852 9.852 0 01-2.756-4.022c-.596-1.565-.857-3.39-.782-5.364l.782-12.478c.112-1.378.075-2.57-.112-3.539-.186-.968-.558-1.75-1.117-2.383-.559-.634-1.341-1.043-2.384-1.341-1.006-.298-2.384-.41-4.06-.41H0v-.075zM86.266 72v-6.146h3.464c2.458 0 4.283-.559 5.55-1.639 1.266-1.08 1.825-2.756 1.713-4.954l-.782-12.552c-.037-1.378.074-2.682.41-3.949.335-1.266.856-2.346 1.601-3.315a8.343 8.343 0 012.794-2.272c1.117-.558 2.458-.856 3.985-.93v-.373c-1.527-.038-2.868-.373-4.022-.969-1.155-.596-2.086-1.378-2.794-2.346-.708-.969-1.23-2.086-1.564-3.39a12.847 12.847 0 01-.41-3.985l.782-12.553c.112-2.198-.484-3.837-1.713-4.954-1.267-1.08-3.092-1.639-5.55-1.639h-3.464V0h3.464c2.234 0 4.283.298 6.071.857 1.825.558 3.315 1.378 4.544 2.495 1.229 1.08 2.161 2.459 2.757 4.023.596 1.602.856 3.352.745 5.364l-.745 12.552c-.038 1.378 0 2.57.149 3.539.149.968.521 1.75 1.08 2.384.559.596 1.341 1.043 2.384 1.34 1.005.299 2.384.41 4.06.41h8.418v6.146h-8.418c-1.639 0-2.98.15-4.023.41-1.043.298-1.862.745-2.421 1.34-.559.634-.931 1.416-1.08 2.385-.149.968-.224 2.16-.149 3.538l.745 12.553c.111 1.974-.149 3.762-.745 5.363-.596 1.602-1.528 2.906-2.757 4.023-1.229 1.08-2.756 1.937-4.544 2.496-1.825.558-3.837.856-6.071.856h-3.464V72z" fill="#1B1D1C"/><path d="M145.453 41.084l-.783 4.433h-2.756l.782-4.433h-3.278l-.782 4.433h-2.756l.782-4.433h-2.086v-2.607h2.533l.819-4.693h-2.458v-2.608h2.905l.783-4.432h2.756l-.782 4.432h3.278l.782-4.432h2.756l-.819 4.432h2.086v2.608h-2.533l-.82 4.693h2.421v2.607h-2.83zm-2.31-2.607l.82-4.693h-3.278l-.82 4.693h3.278zM150.667 31.176h3.762v-4.432h3.911v4.432h5.364v3.539h-5.364V40.6c0 .447.112.82.373 1.043.26.26.596.373 1.043.373h3.65v3.538h-4.06c-1.565 0-2.756-.447-3.65-1.304-.894-.894-1.304-2.086-1.304-3.65v-5.922h-3.762v-3.502h.037zM173.202 45.778c-1.005 0-1.899-.15-2.682-.41a6.668 6.668 0 01-2.085-1.155c-.596-.484-1.006-1.117-1.341-1.825a6 6 0 01-.485-2.347v-3.426c0-.857.149-1.64.485-2.347a4.54 4.54 0 011.341-1.788c.558-.521 1.266-.894 2.085-1.155.82-.26 1.714-.41 2.682-.41.969 0 1.863.15 2.645.41a6.1 6.1 0 012.048 1.155 5.935 5.935 0 011.341 1.825c.336.708.485 1.49.485 2.347v2.607h-9.238v.782c0 .857.224 1.528.708 2.012s1.155.708 2.011.708c.633 0 1.192-.112 1.639-.299.447-.223.745-.484.931-.856h3.837c-.149.633-.447 1.192-.82 1.713-.409.522-.856.969-1.415 1.304-.559.372-1.192.633-1.9.857a8.812 8.812 0 01-2.272.298zm2.757-8.865v-.261c0-.857-.224-1.527-.708-2.011-.484-.485-1.155-.708-2.011-.708-.857 0-1.528.223-2.012.708-.484.484-.708 1.154-.708 2.01v.299h5.439v-.037zM188.995 45.778a9.722 9.722 0 01-2.682-.373 6.226 6.226 0 01-2.086-1.117 5.635 5.635 0 01-1.34-1.751 5.68 5.68 0 01-.485-2.31v-3.724c0-.857.149-1.64.485-2.31a4.707 4.707 0 011.34-1.75c.559-.484 1.267-.857 2.086-1.118.82-.26 1.714-.41 2.682-.41.857 0 1.676.112 2.421.373.745.26 1.416.596 1.974 1.043a6.847 6.847 0 011.453 1.639c.373.633.633 1.378.782 2.16h-3.911c-.111-.558-.409-1.005-.931-1.34-.484-.336-1.08-.485-1.788-.485-.819 0-1.49.187-1.937.596-.484.373-.707.931-.707 1.64v3.687c0 .707.223 1.229.707 1.601.485.373 1.118.559 1.937.559.708 0 1.304-.186 1.788-.521.484-.336.782-.783.931-1.341h3.911c-.149.782-.409 1.527-.782 2.16a5.547 5.547 0 01-1.453 1.639 5.881 5.881 0 01-1.974 1.043c-.745.298-1.564.41-2.421.41zM198.27 26.483h3.911v4.693c0 .261 0 .522-.037.82-.037.298-.075.559-.075.82-.037.26-.074.52-.111.819h.298a2.927 2.927 0 011.154-2.012c.633-.484 1.49-.707 2.533-.707 1.453 0 2.607.484 3.464 1.452.857.969 1.267 2.273 1.267 3.911v9.275h-3.949v-8.902c0-.745-.186-1.304-.596-1.714-.409-.41-.968-.633-1.639-.633-.707 0-1.229.224-1.639.633-.409.41-.595 1.006-.595 1.714v8.865h-3.911V26.483h-.075zM221.028 26.744h4.433l-8.195 10.913v.969h4.954v-3.8h3.911v10.69h-3.911v-3.5h-8.604v-5.439l7.412-9.833zM235.928 26.483a8.38 8.38 0 012.644.41c.782.26 1.49.67 2.049 1.192a5.678 5.678 0 011.341 1.862c.298.708.484 1.527.484 2.421h-3.911c0-.745-.223-1.303-.708-1.713-.484-.41-1.117-.633-1.899-.633-.82 0-1.453.223-1.937.633-.484.41-.708 1.006-.708 1.713v7.562c0 .745.224 1.303.708 1.713.447.41 1.117.633 1.937.633.819 0 1.452-.223 1.937-.67.484-.447.707-1.006.707-1.676h3.911c0 .894-.149 1.676-.484 2.42a5.07 5.07 0 01-1.341 1.863c-.559.522-1.266.894-2.048 1.192-.783.26-1.677.41-2.682.41-1.006 0-1.9-.15-2.682-.41a5.611 5.611 0 01-2.049-1.192 5.705 5.705 0 01-1.341-1.862 6.234 6.234 0 01-.484-2.421V32.33c0-.894.149-1.676.484-2.421a5.072 5.072 0 011.341-1.862c.559-.522 1.267-.894 2.086-1.192a9.24 9.24 0 012.645-.373zM244.867 32.331c0-.894.149-1.676.484-2.384a4.66 4.66 0 011.341-1.825c.559-.521 1.267-.894 2.086-1.192.82-.26 1.714-.41 2.682-.41s1.9.15 2.682.41c.819.26 1.49.67 2.086 1.192a5.966 5.966 0 011.341 1.825c.298.708.484 1.527.484 2.384v7.599c0 .856-.149 1.676-.484 2.383a6.13 6.13 0 01-1.341 1.863 5.476 5.476 0 01-2.086 1.192c-.82.298-1.714.447-2.682.447-1.006 0-1.9-.15-2.682-.41a6.098 6.098 0 01-2.086-1.192 5.705 5.705 0 01-1.341-1.862 6.234 6.234 0 01-.484-2.421V32.33zm3.911 7.561c0 .745.224 1.341.708 1.788.484.447 1.117.67 1.937.67.819 0 1.452-.223 1.937-.67.484-.447.707-1.043.707-1.788v-7.56c0-.746-.223-1.342-.707-1.789-.485-.447-1.118-.67-1.937-.67-.82 0-1.453.223-1.937.67-.484.447-.708 1.043-.708 1.788v7.561zM259.505 26.744h3.948l3.166 13.52c.075.262.112.56.186.858.038.298.075.596.112.856.037.298.075.633.112.931h.149c.037-.297.074-.633.112-.93.037-.261.074-.56.149-.857.037-.298.111-.596.149-.857l3.091-13.521h3.948l-4.991 18.773h-5.214l-4.917-18.773zM276.863 45.517v-3.39h3.911V30.133h-3.911v-3.39h11.733v3.39h-3.911v11.994h3.911v3.39h-11.733zM292.172 45.517V26.744h6.183c1.006 0 1.9.149 2.682.447.782.298 1.49.708 2.086 1.23.558.52 1.005 1.191 1.341 1.936a6.62 6.62 0 01.484 2.496v6.555c0 .931-.149 1.75-.484 2.533a5.04 5.04 0 01-1.341 1.937c-.559.521-1.267.931-2.086 1.23-.82.297-1.714.446-2.682.446h-6.183v-.037zm6.183-3.65c.782 0 1.453-.224 1.937-.67.484-.448.745-1.044.745-1.789v-6.555c0-.745-.261-1.304-.745-1.788-.484-.447-1.118-.67-1.937-.67h-2.272v11.472h2.272zM308.002 42.127h5.029v-9.833c0-.745.037-1.304.074-1.602 0-.223.037-.372.037-.521h-.074c-.075.074-.149.186-.298.298-.075.074-.186.186-.335.298-.149.111-.336.26-.522.41l-3.687 2.383v-3.836l4.395-2.98h4.283v15.383h3.949v3.39h-12.888v-3.39h.037zM329.643 26.483c1.043 0 1.974.15 2.831.447a6.166 6.166 0 012.123 1.304 5.308 5.308 0 011.341 2.011c.335.782.484 1.676.484 2.645 0 1.192-.261 2.42-.745 3.613a23.471 23.471 0 01-2.235 3.985l-3.389 5.029h-4.358l4.32-6.295c.485-.708.857-1.23 1.118-1.639.261-.41.447-.708.596-.894.149-.223.261-.372.298-.447h-.149c-.261.41-.559.745-.931 1.043a5.62 5.62 0 01-1.155.745c-.447.224-1.006.335-1.639.335-.782 0-1.49-.149-2.16-.41a4.497 4.497 0 01-1.677-1.154c-.484-.484-.819-1.118-1.08-1.825-.26-.708-.372-1.49-.372-2.347 0-.931.149-1.75.484-2.533.335-.745.782-1.415 1.378-1.937a6.708 6.708 0 012.123-1.266 9.553 9.553 0 012.794-.41zm-2.868 6.109c0 .894.261 1.602.782 2.086.521.521 1.229.782 2.086.782.857 0 1.564-.26 2.086-.782.521-.522.782-1.23.782-2.086 0-.894-.261-1.602-.782-2.086-.522-.521-1.229-.782-2.086-.782-.857 0-1.602.26-2.086.782-.521.521-.782 1.23-.782 2.086z" fill="#EB5766"/></g><defs><clipPath id="clip0"><path fill="#fff" d="M0 0h336.422v72H0z"/></clipPath></defs></svg>