<svg width="192" height="154" fill="none" xmlns="http://www.w3.org/2000/svg"><path fill-rule="evenodd" clip-rule="evenodd" d="M40 0H0v40h40V0zM18.7 29h-5.25V11.1h8.3c4.7 0 7.625 2.5 7.625 6.35 0 3.85-2.95 6.35-7.675 6.35h-3V29zm0-14.1V20h2.45c1.775 0 2.95-1 2.95-2.55 0-1.55-1.175-2.55-2.95-2.55H18.7z" fill="#122675"/><path stroke="#122675" stroke-width="2" d="M39 1h38v38H39z"/><path d="M51.425 29H56.7v-5.9h1.275l4.45 5.9H68.3l-5.275-6.3.2-.05c2.6-.475 4.5-2.525 4.5-5.45 0-3.65-2.9-6.1-7.275-6.1h-9.025V29zm5.275-9.325V14.9h2.825c1.675 0 2.925.9 2.925 2.375 0 1.5-1.25 2.4-2.925 2.4H56.7z" fill="#122675"/><path stroke="#122675" stroke-width="2" d="M77 1h38v38H77z"/><path d="M89.425 29h14.025v-4.15h-8.925v-3.175h8.2V18.25h-8.2v-3h8.675V11.1H89.425V29z" fill="#122675"/><path stroke="#122675" stroke-width="2" d="M39 39h38v38H39z"/><path d="M57.95 67.375c5 0 8.275-2.3 8.275-5.85 0-4.325-4.125-4.975-7.175-5.425-2.075-.3-3.85-.525-3.85-1.875 0-1 1-1.7 2.675-1.7 1.8 0 2.975.9 2.975 2.475h4.775c0-3.7-3.175-6.25-7.925-6.25-4.725 0-7.775 2.3-7.775 5.85 0 4.6 4.65 4.975 7.725 5.4 1.825.25 3.3.55 3.3 1.85 0 1.1-1.1 1.725-2.8 1.725-2.15 0-3.375-.975-3.4-2.475H49.8c0 3.7 3.25 6.275 8.15 6.275z" fill="#122675"/><path stroke="#122675" stroke-width="2" d="M77 39h38v38H77z"/><path d="M89.425 67h14.025v-4.15h-8.925v-3.175h8.2V56.25h-8.2v-3h8.675V49.1H89.425V67z" fill="#122675"/><path stroke="#122675" stroke-width="2" d="M115 39h38v38h-38z"/><path d="M126.425 67h5.275v-5.9h1.275l4.45 5.9h5.875l-5.275-6.3.2-.05c2.6-.475 4.5-2.525 4.5-5.45 0-3.65-2.9-6.1-7.275-6.1h-9.025V67zm5.275-9.325V52.9h2.825c1.675 0 2.925.9 2.925 2.375 0 1.5-1.25 2.4-2.925 2.4H131.7z" fill="#122675"/><path stroke="#122675" stroke-width="2" d="M115 77h38v38h-38z"/><path d="M130.525 105h8.225l5.3-17.9h-5.45l-3.825 14.025h-.25L130.65 87.1h-5.4l5.275 17.9z" fill="#122675"/><path stroke="#122675" stroke-width="2" d="M153 77h38v38h-38z"/><path d="M165.425 105h14.025v-4.15h-8.925v-3.175h8.2V94.25h-8.2v-3h8.675V87.1h-13.775V105z" fill="#122675"/><path stroke="#122675" stroke-width="2" d="M77 115h38v38H77z"/><path d="M101.375 126c-2.169 0-3.995 1.348-4.875 2.133-.88-.785-2.706-2.133-4.875-2.133-3.102 0-5.625 2.515-5.625 5.606 0 1.936 1.774 3.698 1.845 3.768L96.5 144l8.651-8.621c.075-.075 1.849-1.837 1.849-3.773 0-3.091-2.523-5.606-5.625-5.606z" fill="#122675"/></svg>